<svg xmlns="http://www.w3.org/2000/svg" viewBox="0 0 517.42 73.76"><defs><style>.cls-1{fill:#ff7b57;}.cls-2{fill:#26d1c4;}.cls-3{fill:#007ae5;}.cls-4{fill:#3cb7f7;}.cls-5{fill:#093447;}</style></defs><title>rm-wordmark</title><g id="Layer_2" data-name="Layer 2"><g id="Layer_1-2" data-name="Layer 1"><circle class="cls-1" cx="55.12" cy="57.24" r="16.51"/><path class="cls-2" d="M24.57,9.26V2.84a1.16,1.16,0,0,0-1.16-1.16H1.15A1.16,1.16,0,0,0,0,2.84V55.11A55.1,55.1,0,0,1,24.57,9.26Z"/><path class="cls-3" d="M0,55.11V72.6a1.16,1.16,0,0,0,1.15,1.16H23.41a1.16,1.16,0,0,0,1.16-1.16V9.26A55.1,55.1,0,0,0,0,55.11Z"/><path class="cls-4" d="M24.57,9.26V55.11A30.58,30.58,0,0,1,54,24.58a1.17,1.17,0,0,0,1.13-1.15V1.16A1.17,1.17,0,0,0,53.94,0,54.75,54.75,0,0,0,24.57,9.26Z"/><path class="cls-5" d="M122,18.45c-11.16,0-14,7.88-14,7.88V20.5a.8.8,0,0,0-.8-.8H98.89a.8.8,0,0,0-.8.8V65a.8.8,0,0,0,.8.8h8.28a.8.8,0,0,0,.8-.8V41.19c0-11.63,9.55-12.54,12.45-12.54a12.1,12.1,0,0,1,7.44,2.14.82.82,0,0,0,1.19-.28L133,23a.8.8,0,0,0-.19-1A17.83,17.83,0,0,0,122,18.45Z"/><path class="cls-5" d="M358,40.55V64.94a.8.8,0,0,0,.81.8h8.27a.8.8,0,0,0,.8-.81l0-24.38c0-10.07-3.24-22.07-18.68-22.07-12.22,0-15.49,9.53-15.49,9.53a13.49,13.49,0,0,0-13.47-9.73c-10.72,0-12.79,8.78-12.79,8.78V20.5a.8.8,0,0,0-.81-.8h-8.27a.8.8,0,0,0-.8.8V65a.8.8,0,0,0,.8.8h8.27a.8.8,0,0,0,.81-.8V40.53c0-8.29,5.27-12.62,10.46-12.62,7,0,10.14,6.55,10.14,12.64l0,24.38a.8.8,0,0,0,.81.8h8.27a.8.8,0,0,0,.8-.8V40.55c0-7.1,4.62-12.45,10.74-12.45C354.39,28.1,358,32.87,358,40.55Z"/><path class="cls-5" d="M158,18.44a24.31,24.31,0,1,0,24.3,24.3A24.33,24.33,0,0,0,158,18.44Zm0,39a14.72,14.72,0,1,1,14.71-14.72A14.73,14.73,0,0,1,158,57.46Z"/><path class="cls-5" d="M505.68,65.76h10.94a.8.8,0,0,0,.61-1.33L497.17,41.24l17-20a.8.8,0,0,0-.62-1.32H502.69a.79.79,0,0,0-.61.29L486.66,38.35V2.44a.8.8,0,0,0-.8-.81h-8.27a.8.8,0,0,0-.8.81V65a.8.8,0,0,0,.8.81h8.27a.8.8,0,0,0,.8-.81V44.19l18.41,21.29A.81.81,0,0,0,505.68,65.76Z"/><path class="cls-5" d="M393.05,67a17.8,17.8,0,0,0,15.23-7.85V65a.8.8,0,0,0,.8.8h8.28a.8.8,0,0,0,.8-.8V20.47a.8.8,0,0,0-.8-.8h-8.28a.8.8,0,0,0-.8.8V44.69h0C408.19,52.19,403.62,58,396.5,58s-11.87-5.09-11.87-13V20.47a.8.8,0,0,0-.81-.8h-8.27a.8.8,0,0,0-.8.8v25C374.89,58.55,382,67,393.05,67Z"/><path class="cls-5" d="M450.88,18.43a17.81,17.81,0,0,0-15.23,7.84V20.48a.8.8,0,0,0-.8-.81h-8.28a.8.8,0,0,0-.8.81V65a.8.8,0,0,0,.8.81h8.28a.8.8,0,0,0,.8-.81V40.74h0c.09-7.5,4.66-13.35,11.78-13.35s11.87,5.09,11.87,13V65a.8.8,0,0,0,.8.81h8.27a.8.8,0,0,0,.8-.81V40C469,26.88,461.89,18.43,450.88,18.43Z"/><path class="cls-5" d="M265.48,67.05c9.8,0,13.84-6.24,13.84-6.24V65a.8.8,0,0,0,.8.8h8.28a.8.8,0,0,0,.8-.8V2.44a.8.8,0,0,0-.8-.81h-8.28a.8.8,0,0,0-.8.81V24.67s-4-6.23-13.84-6.23h0a24.3,24.3,0,1,0,0,48.6Zm14.71-24.31A14.72,14.72,0,1,1,265.48,28,14.72,14.72,0,0,1,280.19,42.74Z"/><path class="cls-5" d="M211.65,67.05c9.8,0,13.85-6.24,13.85-6.24V65a.8.8,0,0,0,.8.8h8.27a.8.8,0,0,0,.8-.8V20.5a.8.8,0,0,0-.8-.8H226.3a.8.8,0,0,0-.8.8v4.17s-4.05-6.23-13.85-6.23h0a24.3,24.3,0,0,0,0,48.6Zm14.72-24.31A14.72,14.72,0,1,1,211.65,28,14.72,14.72,0,0,1,226.37,42.74Z"/></g></g></svg>